<svg width="252" height="173" viewBox="0 0 252 173" fill="none" xmlns="http://www.w3.org/2000/svg">
<path d="M44.1326 49.222H56.768V67.4616C54.2185 69.2272 51.2602 70.584 47.893 71.5345C44.5232 72.4772 41.2159 72.9512 37.9659 72.9512C33.3617 72.9512 29.2289 71.9954 25.5701 70.0866C21.9164 68.1699 19.0518 65.498 16.9763 62.0658C14.906 58.6361 13.8722 54.7428 13.8722 50.3887C13.8722 46.0345 14.906 42.1439 16.9763 38.7116C19.0518 35.2819 21.9477 32.6126 25.6638 30.7012C29.3852 28.7845 33.5909 27.8262 38.2784 27.8262C42.5076 27.8262 46.294 28.5397 49.643 29.9616C52.9972 31.3783 55.781 33.4408 57.9972 36.1491L48.6951 44.347C45.9789 41.1882 42.7524 39.6074 39.018 39.6074C35.8097 39.6074 33.2602 40.5736 31.3722 42.5033C29.4815 44.4355 28.5388 47.0632 28.5388 50.3887C28.5388 53.6335 29.4711 56.2428 31.3409 58.222C33.2081 60.196 35.7055 61.1803 38.8305 61.1803C40.6768 61.1803 42.4451 60.8314 44.1326 60.1283V49.222Z" fill="white"/>
<path d="M70.5634 41.8886C73.0269 39.05 76.6623 37.6282 81.4696 37.6282V49.9615C80.3654 49.7948 79.3368 49.7115 78.3863 49.7115C73.6206 49.7115 71.2404 52.136 71.2404 56.9823V71.9615H57.3134V38.2428H70.5634V41.8886Z" fill="white"/>
<path d="M95.2787 37.6282C101.195 37.6282 105.711 38.9563 108.831 41.6073C111.956 44.261 113.518 48.3365 113.518 53.8365V71.9615H100.57V67.524C98.9714 70.8938 95.7891 72.5761 91.0183 72.5761C88.3516 72.5761 86.0808 72.1125 84.2058 71.1907C82.336 70.2688 80.9193 69.0136 79.9558 67.4303C78.9896 65.8469 78.5078 64.0709 78.5078 62.0969C78.5078 58.7714 79.7813 56.248 82.3308 54.524C84.8776 52.7948 88.7396 51.9303 93.9141 51.9303H99.5287C99.0756 49.3 96.9584 47.9823 93.1745 47.9823C91.6537 47.9823 90.112 48.2193 88.5495 48.6907C86.9922 49.1646 85.6589 49.8131 84.5495 50.6386L80.112 41.4511C82.0417 40.2584 84.3724 39.3235 87.1016 38.649C89.836 37.9693 92.5625 37.6282 95.2787 37.6282ZM95.2162 64.1907C96.2006 64.1907 97.0834 63.9277 97.862 63.399C98.6381 62.8652 99.2162 62.0631 99.5912 60.9928V58.649H96.1328C93.2995 58.649 91.8828 59.5943 91.8828 61.4823C91.8828 62.2688 92.1797 62.9172 92.7787 63.4303C93.375 63.9381 94.1875 64.1907 95.2162 64.1907Z" fill="white"/>
<path d="M136.813 37.6282C139.771 37.6282 142.493 38.3417 144.98 39.7636C147.464 41.1803 149.438 43.2271 150.896 45.899C152.355 48.5657 153.084 51.6464 153.084 55.1386C153.084 58.6334 152.355 61.7063 150.896 64.3573C149.438 67.0032 147.464 69.0344 144.98 70.4511C142.493 71.8678 139.771 72.5761 136.813 72.5761C133.068 72.5761 130.211 71.6125 128.24 69.6803V83.9198H114.313V38.2428H127.563V41.024C129.576 38.761 132.659 37.6282 136.813 37.6282ZM133.48 61.7323C135.084 61.7323 136.399 61.1568 137.427 60.0032C138.453 58.8521 138.969 57.2297 138.969 55.1386C138.969 53.0422 138.453 51.4094 137.427 50.2428C136.399 49.0709 135.084 48.4823 133.48 48.4823C131.875 48.4823 130.558 49.0709 129.532 50.2428C128.503 51.4094 127.99 53.0422 127.99 55.1386C127.99 57.2297 128.503 58.8521 129.532 60.0032C130.558 61.1568 131.875 61.7323 133.48 61.7323Z" fill="white"/>
<path d="M175.627 37.6283C179.778 37.6283 183.119 38.8835 185.648 41.3887C188.174 43.8965 189.439 47.6777 189.439 52.7324V71.9616H175.502V55.1387C175.502 51.2715 174.127 49.3366 171.377 49.3366C169.814 49.3366 168.549 49.8835 167.585 50.972C166.619 52.0632 166.137 53.7793 166.137 56.1178V71.9616H152.21V26.2324H166.137V40.9616C168.726 38.7402 171.89 37.6283 175.627 37.6283Z" fill="white"/>
<path d="M190.231 38.2428H204.158V71.9616H190.231V38.2428ZM197.2 35.5345C194.692 35.5345 192.668 34.8678 191.127 33.5345C189.585 32.196 188.814 30.5007 188.814 28.4512C188.814 26.3965 189.585 24.7012 191.127 23.3678C192.668 22.0293 194.692 21.3574 197.2 21.3574C199.747 21.3574 201.783 21.998 203.304 23.2741C204.825 24.5449 205.585 26.1882 205.585 28.2012C205.585 30.3418 204.825 32.097 203.304 33.472C201.783 34.847 199.747 35.5345 197.2 35.5345Z" fill="white"/>
<path d="M223.196 72.5761C219.375 72.5761 215.956 71.8365 212.935 70.3573C209.914 68.8782 207.55 66.8053 205.841 64.1386C204.138 61.4667 203.289 58.4459 203.289 55.0761C203.289 51.7089 204.138 48.6985 205.841 46.0448C207.55 43.3938 209.914 41.3261 212.935 39.8469C215.956 38.3678 219.375 37.6282 223.196 37.6282C227.305 37.6282 230.821 38.5136 233.737 40.2844C236.654 42.05 238.667 44.4928 239.779 47.6178L228.998 52.9198C227.677 49.9615 225.727 48.4823 223.144 48.4823C221.498 48.4823 220.128 49.0605 219.039 50.2115C217.948 51.3573 217.404 52.9797 217.404 55.0761C217.404 57.2089 217.948 58.8521 219.039 60.0032C220.128 61.1568 221.498 61.7323 223.144 61.7323C225.727 61.7323 227.677 60.2532 228.998 57.2948L239.779 62.5969C238.667 65.7167 236.654 68.1594 233.737 69.9303C230.821 71.6959 227.305 72.5761 223.196 72.5761Z" fill="white"/>
<path d="M102.692 114.253C106.676 114.253 110.15 114.915 113.109 116.233C116.067 117.545 118.348 119.436 119.952 121.899C121.556 124.365 122.359 127.24 122.359 130.524C122.359 133.816 121.556 136.696 119.952 139.16C118.348 141.626 116.067 143.514 113.109 144.826C110.15 146.139 106.676 146.795 102.692 146.795H96.4732V157.399H81.9211V114.253H102.692ZM101.775 135.576C103.747 135.576 105.226 135.136 106.213 134.253C107.197 133.373 107.692 132.128 107.692 130.524C107.692 128.92 107.197 127.678 106.213 126.795C105.226 125.915 103.747 125.472 101.775 125.472H96.4732V135.576H101.775Z" fill="white"/>
<path d="M122.041 123.68H135.968V157.399H122.041V123.68ZM129.01 120.972C126.502 120.972 124.479 120.305 122.937 118.972C121.395 117.634 120.625 115.938 120.625 113.889C120.625 111.834 121.395 110.139 122.937 108.805C124.479 107.467 126.502 106.795 129.01 106.795C131.557 106.795 133.593 107.436 135.114 108.712C136.635 109.983 137.395 111.626 137.395 113.639C137.395 115.779 136.635 117.535 135.114 118.91C133.593 120.285 131.557 120.972 129.01 120.972Z" fill="white"/>
<path d="M158.152 157.399L153.527 150.191L148.35 157.399H133.256L146.016 140.691L133.62 123.68H149.339L154.152 130.837L159.204 123.68H173.808L161.423 140.076L174.12 157.399H158.152Z" fill="white"/>
<path d="M1 168.268H73.8672H1Z" fill="white"/>
<path d="M1 168.268H73.8672" stroke="white" stroke-width="8.7"/>
<path d="M5.30991 98.8334V170V98.8334Z" fill="white"/>
<path d="M5.30991 98.8334V170" stroke="white" stroke-width="8.7"/>
<path d="M250.992 5.10681H178.128H250.992Z" fill="white"/>
<path d="M250.992 5.10681H178.128" stroke="white" stroke-width="8.7"/>
<path d="M246.682 74.5417V3.37769V74.5417Z" fill="white"/>
<path d="M246.682 74.5417V3.37768" stroke="white" stroke-width="8.7"/>
</svg>
